<?xml version="1.0" encoding="UTF-8"?><svg width="30" height="30" xmlns="http://www.w3.org/2000/svg"><g fill-rule="nonzero" fill="#FFF"><path d="M28.697.126a1.237 1.237 0 0 0-.127.011h-8.997a1.144 1.144 0 1 0 0 2.287h6.387L11.906 16.478h-.001a1.142 1.142 0 0 0-.016 1.632 1.145 1.145 0 0 0 1.632-.014L27.575 4.042v6.386l.001-.001a1.144 1.144 0 1 0 2.287 0v-9A1.144 1.144 0 0 0 28.697.125z"/><path d="M12.713 4.71c-2.854 0-5.01-.004-6.728.19-1.718.195-3.094.604-4.077 1.588C.924 7.473.52 8.846.327 10.564c-.193 1.718-.19 3.873-.19 6.724s-.003 5.008.194 6.726c.197 1.717.61 3.09 1.597 4.076.986.983 2.359 1.392 4.076 1.585 1.716.194 3.867.19 6.71.19 2.842 0 4.992.001 6.71-.195 1.716-.196 3.092-.606 4.077-1.589.986-.985 1.394-2.358 1.592-4.076.197-1.718.197-3.871.197-6.717v-.001c.004-.306-.115-.6-.329-.819a1.149 1.149 0 0 0-1.63 0 1.147 1.147 0 0 0-.328.819c0 2.844-.01 4.965-.181 6.458-.172 1.493-.486 2.267-.938 2.718-.451.452-1.225.766-2.718.936-1.493.17-3.613.179-6.454.179-2.841 0-4.96-.007-6.454-.176-1.493-.169-2.267-.482-2.718-.932-.452-.45-.768-1.223-.938-2.718-.171-1.495-.181-3.616-.181-6.464 0-2.85.005-4.972.174-6.467.167-1.494.482-2.266.929-2.715.447-.449 1.22-.762 2.715-.932 1.495-.168 3.619-.176 6.472-.176l.002-.001a1.144 1.144 0 1 0 0-2.287z"/></g></svg>