<?xml version="1.0" encoding="UTF-8"?><svg width="205" height="50" viewBox="0 0 205 50" xmlns="http://www.w3.org/2000/svg"><title>eyeo-help</title><g fill-rule="nonzero" fill="#FFF"><path d="M75.266 22.258c.39-3.205 2.844-5.802 6.914-5.802 3.792 0 6.245 2.708 6.357 5.802h-13.27zm7.026-10.5c-7.75 0-12.825 6.134-12.825 13.318 0 7.294 5.074 13.373 12.88 13.373 4.294 0 7.695-1.55 9.536-3.15.78-.664.557-1.162.11-1.714l-1.504-2.32c-.448-.664-.95-.498-1.507-.11-1.56 1.104-3.346 2.154-6.3 2.154-4.518 0-7.64-3.537-7.696-6.963h17.788c.557 0 1.115-.442 1.17-1.105.057-.442.112-1.326.112-1.768 0-6.797-5.074-11.715-11.765-11.715zM133.594 22.258c.39-3.205 2.844-5.802 6.915-5.802 3.79 0 6.244 2.708 6.356 5.802h-13.272zm7.026-10.5c-7.75 0-12.825 6.134-12.825 13.318 0 7.294 5.075 13.373 12.88 13.373 4.295 0 7.696-1.55 9.537-3.15.78-.664.557-1.162.11-1.714l-1.504-2.32c-.447-.664-.95-.498-1.506-.11-1.562 1.104-3.346 2.154-6.3 2.154-4.518 0-7.64-3.537-7.696-6.963h17.788c.557 0 1.115-.442 1.17-1.105.056-.442.112-1.326.112-1.768 0-6.797-5.074-11.715-11.766-11.715zM191.046 33.2c-4.35 0-7.695-3.482-7.695-8.18 0-4.586 3.346-8.012 7.696-8.012 4.293 0 7.64 3.426 7.64 8.013 0 4.698-3.347 8.18-7.64 8.18zm0-21.44c-7.25 0-13.16 6.077-13.16 13.26 0 7.295 5.91 13.43 13.16 13.43 7.193 0 13.104-6.135 13.104-13.43 0-7.183-5.91-13.26-13.104-13.26zM170.833 12.5c-1.177 0-1.507.27-2.083 0l-10.417 27.083c-.058-.27-.026 0 0 0 1.24 0 1.502-.194 2.084 0L170.833 12.5c.086.27-.09 0 0 0M118.827 11.628c-.612 0-1.113.11-1.335.717l-7.233 17.48h-.113l-5.953-17.48c-.167-.442-.724-.717-1.113-.717h-3.67c-1.003 0-1.448.772-1.114 1.654l8.847 22.937-5.074 12.073c-.446.88.165 1.707 1.11 1.707h3.556c.5 0 .833-.385 1.056-.77L123.39 13.28c.39-.882-.056-1.654-1.114-1.654h-3.45zM25.123 34.316c-12.31 0-22.29-4.125-22.29-9.213 0-5.087 9.98-9.212 22.29-9.212 12.31 0 22.29 4.126 22.29 9.213 0 5.088-9.98 9.213-22.29 9.213zm0-34.11C11.248.207 0 11.354 0 25.104 0 38.853 11.248 50 25.123 50c13.875 0 25.123-11.147 25.123-24.897 0-13.75-11.248-24.896-25.123-24.896z"/><path d="M18.248 21.41h-1.26c-.135 0-.257.098-.257.206v7.2c0 .108.123.206.258.206h1.26c.136 0 .258-.098.258-.207v-7.2c0-.107-.122-.205-.258-.205M32.622 21.41c-2.133 0-3.83 1.702-3.83 3.816 0 2.115 1.697 3.796 3.83 3.796 2.134 0 3.84-1.68 3.84-3.796 0-2.114-1.706-3.816-3.84-3.816"/></g></svg>